<?xml version="1.0" standalone="no"?>
<!DOCTYPE svg PUBLIC "-//W3C//DTD SVG 1.1//EN" "http://www.w3.org/Graphics/SVG/1.1/DTD/svg11.dtd" >
<svg xmlns="http://www.w3.org/2000/svg" xmlns:xlink="http://www.w3.org/1999/xlink" version="1.1">
<metadata></metadata>
<defs>
<font id="sfu_insigniaregular" horiz-adv-x="1175" >
<font-face units-per-em="2048" ascent="1638" descent="-410" />
<missing-glyph horiz-adv-x="548" />
<glyph horiz-adv-x="0" />
<glyph unicode="&#xd;" horiz-adv-x="548" />
<glyph unicode=" "  horiz-adv-x="548" />
<glyph unicode="&#x09;" horiz-adv-x="548" />
<glyph unicode="&#xa0;" horiz-adv-x="548" />
<glyph unicode="!" horiz-adv-x="569" d="M141 1286h287l-53 -954h-180zM160 98q0 53 35.5 89t89.5 36q53 0 89 -35.5t36 -89.5q0 -53 -36 -89t-89 -36q-51 0 -88 37t-37 88z" />
<glyph unicode="&#x22;" horiz-adv-x="720" d="M80 905v381h213v-381h-213zM428 905v381h213v-381h-213z" />
<glyph unicode="#" horiz-adv-x="1228" d="M117 367v176h194l29 200h-170v177h195l51 366h182l-51 -366h213l51 366h182l-51 -366h170v-177h-194l-29 -200h170v-176h-195l-51 -367h-182l51 367h-213l-51 -367h-182l51 367h-170zM494 543h213l28 200h-213z" />
<glyph unicode="$" horiz-adv-x="1290" d="M72 211l180 162q166 -176 381 -174q119 0 198 39q109 49 109 153q0 113 -215 150q-356 61 -399 77q-215 82 -215 308q0 154 129 260q111 88 276 117v213h225v-209q250 -25 414 -191l-176 -158q-156 154 -348 154q-100 0 -174 -37q-96 -47 -97 -137q0 -113 215 -147 q350 -57 400 -76q215 -84 215 -312q0 -172 -141 -290q-125 -104 -308 -129v-222h-225v220q-258 35 -444 229z" />
<glyph unicode="%" horiz-adv-x="983" d="M49 1059q0 80 56.5 136t136.5 56t136 -56t56 -136t-56 -136.5t-136 -56.5t-136.5 56.5t-56.5 136.5zM156 1059q0 -35 25.5 -60.5t60.5 -25.5t60.5 25.5t25.5 60.5t-26 60.5t-60 25.5q-35 0 -60.5 -25.5t-25.5 -60.5zM180 0l426 1286h197l-426 -1286h-197zM549 227 q0 80 56.5 136.5t135.5 56.5q80 0 136.5 -56.5t56.5 -136.5t-56.5 -136t-136.5 -56t-136 56t-56 136zM655 227q0 -35 26 -60.5t60 -25.5q35 0 60.5 26t25.5 60q0 35 -25.5 60.5t-60.5 25.5t-60.5 -25.5t-25.5 -60.5z" />
<glyph unicode="&#x26;" horiz-adv-x="1327" d="M109 375q0 121 67.5 208t185.5 119v5q-80 25 -123.5 96t-43.5 158q0 168 131 264q119 88 292 88q242 0 355 -168l-199 -96q-61 88 -170 88q-78 0 -137 -48.5t-59 -123.5q0 -184 202 -185h64v-182q-25 6 -68 6q-109 0 -186 -55q-86 -63 -86 -168q0 -104 82 -166 q74 -53 182 -53q319 0 320 461q0 27 -7 149h353v-143h-134v-80q0 -250 -141 -410q-150 -166 -395 -166q-201 0 -336 99q-150 109 -149 303z" />
<glyph unicode="'" horiz-adv-x="454" d="M121 905v381h213v-381h-213z" />
<glyph unicode="(" horiz-adv-x="569" d="M92 592q0 425 303 831l174 -135q-240 -360 -239 -696q0 -336 239 -696l-174 -136q-303 406 -303 832z" />
<glyph unicode=")" horiz-adv-x="569" d="M0 -104q240 360 240 696t-240 696l174 135q303 -406 303 -831q0 -426 -303 -832z" />
<glyph unicode="*" horiz-adv-x="606" d="M31 1044l41 119l168 -53v176h127v-176l168 53l40 -119l-167 -57l104 -143l-102 -70l-107 148l-106 -148l-103 70l105 143z" />
<glyph unicode="+" horiz-adv-x="1228" d="M96 412v213h412v411h213v-411h412v-213h-412v-412h-213v412h-412z" />
<glyph unicode="," horiz-adv-x="548" d="M168 -170v381h213v-238z" />
<glyph unicode="-" horiz-adv-x="606" d="M98 557v201h410v-201h-410z" />
<glyph unicode="." horiz-adv-x="548" d="M150 98q0 53 35.5 89t88.5 36t89 -35.5t36 -89.5q0 -53 -35.5 -89t-89.5 -36q-51 0 -87.5 37t-36.5 88z" />
<glyph unicode="/" horiz-adv-x="681" d="M-10 -27l477 1340h225l-477 -1340h-225z" />
<glyph unicode="0" horiz-adv-x="1097" d="M117 420v446q0 197 117.5 322t314.5 125t314.5 -125t117.5 -322v-446q0 -197 -118 -322t-314 -125q-197 0 -314.5 125t-117.5 322zM354 406q0 -90 52.5 -148.5t142.5 -58.5q92 0 143 57t51 150v475q0 92 -51 149t-143 57q-90 0 -142.5 -58t-52.5 -148v-475z" />
<glyph unicode="1" horiz-adv-x="647" d="M57 819v248l410 246v-1313h-238v936z" />
<glyph unicode="2" horiz-adv-x="1138" d="M55 1034q186 279 520 279q193 0 324 -103q143 -113 143 -301q0 -193 -215 -354l-446 -338v-4h657v-213h-956v236l612 483q111 88 111 194q0 90 -80 148q-70 51 -164 51q-180 0 -285 -162z" />
<glyph unicode="3" horiz-adv-x="1097" d="M16 162l185 147q129 -123 282 -123q115 0 201 73t86 185q0 129 -108 199q-92 59 -228 59q-61 0 -155 -22l301 393h-504v213h932l-357 -444q154 -6 255.5 -120t101.5 -269q0 -215 -162 -351q-152 -129 -371 -129q-285 0 -459 189z" />
<glyph unicode="4" horiz-adv-x="1064" d="M16 309l430 977h234l-338 -764h279v309h225v-309h178v-213h-178v-309h-225v309h-605z" />
<glyph unicode="5" horiz-adv-x="1097" d="M43 154l188 159q104 -127 289 -127q115 0 194 75t77 188q-2 106 -75 177.5t-179 71.5q-145 0 -234 -104h-184l67 692h760v-213h-551l-30 -235q84 61 229 61q188 0 311 -128t123 -318q0 -217 -146.5 -348.5t-365.5 -131.5q-266 0 -473 181z" />
<glyph unicode="6" horiz-adv-x="1097" d="M74 401q0 174 119 373l333 557l234 -82l-264 -397q57 10 106 10q184 0 303 -124t119 -308q0 -207 -133 -332t-342 -125q-193 0 -330 117q-145 121 -145 311zM299 424q0 -102 73.5 -176t176.5 -74q102 0 176 74t74 176t-74 176t-176 74t-176 -74t-74 -176z" />
<glyph unicode="7" horiz-adv-x="1024" d="M78 856v430h946l-539 -1286h-233l448 1073h-397v-217h-225z" />
<glyph unicode="8" horiz-adv-x="1138" d="M96 383q0 115 64.5 201t175.5 116q-166 84 -166 267q0 154 125 254q117 92 274 92q158 0 275 -92q125 -100 125 -254q0 -182 -166 -267q111 -31 175 -116.5t64 -200.5q0 -193 -143 -305q-133 -104 -330 -105q-197 0 -329 105q-144 112 -144 305zM322 387q0 -96 77 -158 q70 -55 170 -55t170 55q78 61 78 158q0 98 -72.5 153.5t-175.5 55.5q-102 0 -172 -53q-75 -58 -75 -156zM395 954q0 -74 50.5 -128t123.5 -54q74 0 124 54.5t50 127.5q0 74 -50 128.5t-124 54.5t-124 -54.5t-50 -128.5z" />
<glyph unicode="9" horiz-adv-x="1097" d="M74 856q0 207 133 332t342 125q225 0 358 -142q117 -123 117 -286q0 -174 -119 -373l-334 -557l-233 82l264 397q-57 -10 -106 -10q-182 0 -302 125t-120 307zM299 862q0 -102 73.5 -176t176.5 -74q102 0 176 74t74 176t-74 176t-176 74t-176 -73.5t-74 -176.5z" />
<glyph unicode=":" horiz-adv-x="548" d="M150 98q0 53 35.5 89t88.5 36t89 -35.5t36 -89.5q0 -53 -35.5 -89t-89.5 -36q-51 0 -87.5 37t-36.5 88zM150 893q0 53 35.5 89t88.5 36t89 -36t36 -89t-35.5 -89t-89.5 -36q-51 0 -87.5 37t-36.5 88z" />
<glyph unicode=";" horiz-adv-x="548" d="M150 893q0 53 35.5 89t88.5 36t89 -36t36 -89t-35.5 -89t-89.5 -36q-51 0 -87.5 37t-36.5 88zM168 -170v381h213v-238z" />
<glyph unicode="&#x3c;" horiz-adv-x="1228" d="M96 430v176l1037 447v-209l-764 -326l764 -325v-209z" />
<glyph unicode="=" horiz-adv-x="1228" d="M96 186v213h1037v-213h-1037zM96 637v213h1037v-213h-1037z" />
<glyph unicode="&#x3e;" horiz-adv-x="1228" d="M96 -16v209l764 325l-764 326v209l1037 -447v-176z" />
<glyph unicode="?" horiz-adv-x="1138" d="M76 1114q170 199 436 199q221 0 365 -121q152 -129 151 -346q0 -182 -116.5 -303t-299.5 -121v-90h-188v268q29 -6 59 -6q123 0 205 63q90 72 90 191q0 111 -76.5 181.5t-189.5 70.5q-152 0 -274 -129zM393 98q0 53 36 89t89 36t89 -35.5t36 -89.5q0 -53 -36 -89t-89 -36 q-51 0 -88 37t-37 88z" />
<glyph unicode="@" horiz-adv-x="1638" d="M150 643q0 283 200.5 476.5t485.5 193.5q258 0 446 -142q207 -158 207 -407q0 -250 -186 -395q-139 -109 -269 -109q-106 0 -114 96h-5q-72 -96 -196 -96q-119 0 -201 102q-76 96 -76 218q0 152 107.5 285.5t257.5 133.5q162 0 237 -120l23 94h160l-109 -463 q-10 -43 -10 -61q0 -37 29 -37q96 0 153 112q47 92 47 197q0 211 -149 330q-135 111 -352 110q-215 0 -362.5 -151.5t-147.5 -366.5t147.5 -366.5t362.5 -151.5q268 0 417 133h160q-195 -285 -577 -285q-285 0 -485.5 193.5t-200.5 476.5zM631 584q0 -63 38 -105.5 t101 -42.5q94 0 154 76q57 70 57 166q0 57 -39 95t-96 38q-90 0 -152.5 -68.5t-62.5 -158.5z" />
<glyph unicode="A" horiz-adv-x="1251" d="M0 0l469 1073h-295v213h533l544 -1286h-256l-98 242h-545l-98 -242h-254zM438 455h375l-186 460z" />
<glyph unicode="B" horiz-adv-x="1366" d="M31 547v225h153v514h686q164 0 267.5 -91t103.5 -253q0 -186 -158 -256q229 -74 230 -313q0 -170 -111.5 -271.5t-283.5 -101.5h-734v547h-153zM422 225h469q74 0 129 43t55 117t-54 118t-130 44h-469v-322zM422 772h422q70 0 115 39t45 107t-46.5 105.5t-113.5 37.5 h-422v-289z" />
<glyph unicode="C" horiz-adv-x="1366" d="M68 643q0 287 200.5 478.5t489.5 191.5q338 0 549 -264l-197 -148q-129 186 -352 186q-182 0 -311.5 -131t-129.5 -313t129 -313t312 -131q225 0 356 178l193 -139q-211 -264 -549 -265q-289 0 -489.5 191.5t-200.5 478.5z" />
<glyph unicode="D" horiz-adv-x="1478" d="M178 0v1286h543q293 0 487 -174q203 -180 203 -469q0 -285 -205 -467q-197 -176 -485 -176h-543zM416 225h305q190 0 321.5 115t131.5 303t-131.5 303t-321.5 115h-305v-836z" />
<glyph unicode="E" horiz-adv-x="1251" d="M31 547v225h153v514h987v-225h-749v-289h522v-225h-522v-322h749v-225h-987v547h-153z" />
<glyph unicode="F" horiz-adv-x="1138" d="M31 547v225h153v514h987v-225h-749v-289h522v-225h-522v-547h-238v547h-153z" />
<glyph unicode="G" horiz-adv-x="1515" d="M68 643q0 287 200.5 478.5t489.5 191.5q338 0 549 -264l-197 -148q-129 186 -352 186q-182 0 -311.5 -131t-129.5 -313t129 -313t312 -131q164 0 280.5 94t155.5 254h-438v225h692v-170q0 -207 -158 -393q-199 -236 -532 -236q-289 0 -489.5 191.5t-200.5 478.5z" />
<glyph unicode="H" horiz-adv-x="1402" d="M31 547v225h153v514h238v-514h588v514h237v-1286h-237v547h-588v-547h-238v547h-153z" />
<glyph unicode="I" horiz-adv-x="569" d="M166 0v1286h237v-1286h-237z" />
<glyph unicode="J" horiz-adv-x="720" d="M14 -27v226q324 29 324 372v490h-207v225h444v-735q0 -252 -154.5 -414t-406.5 -164z" />
<glyph unicode="K" horiz-adv-x="1251" d="M31 547v225h153v514h238v-514h88l432 514h297l-496 -567l514 -719h-303l-374 547h-158v-547h-238v547h-153z" />
<glyph unicode="L" horiz-adv-x="1214" d="M162 0v1286h237v-1061h506v307h238v-532h-981z" />
<glyph unicode="M" horiz-adv-x="1441" d="M150 0v1313l571 -578l571 578v-1313h-237v795l-334 -346l-334 346v-795h-237z" />
<glyph unicode="N" horiz-adv-x="1366" d="M150 0v1313l829 -815v788h238v-1313l-830 815v-788h-237z" />
<glyph unicode="O" horiz-adv-x="1515" d="M68 643q0 287 200.5 478.5t489.5 191.5t489.5 -191.5t200.5 -478.5t-200.5 -478.5t-489.5 -191.5t-489.5 191.5t-200.5 478.5zM317 643q0 -182 129 -313t312 -131q182 0 311 131t129 313t-129 313t-311 131t-311.5 -131t-129.5 -313z" />
<glyph unicode="P" horiz-adv-x="1290" d="M31 406v225h153v655h613q205 0 334 -118.5t129 -321.5t-129.5 -321.5t-333.5 -118.5h-375v-406h-238v406h-153zM422 631h356q104 0 174 56t70 159q0 104 -68.5 159.5t-175.5 55.5h-356v-430z" />
<glyph unicode="Q" horiz-adv-x="1515" d="M68 643q0 287 200.5 478.5t489.5 191.5t489.5 -191.5t200.5 -478.5q0 -254 -165 -439.5t-419 -221.5v-170h-213v170q-254 37 -418.5 222t-164.5 439zM317 643q0 -152 93.5 -271.5t240.5 -156.5v203h213v-203q147 39 240.5 158t93.5 270q0 182 -129 313t-311 131 t-311.5 -131t-129.5 -313z" />
<glyph unicode="R" horiz-adv-x="1327" d="M31 406v225h153v655h613q205 0 334 -118.5t129 -321.5q0 -137 -84 -241.5t-218 -145.5l322 -459h-299l-268 406h-291v-406h-238v406h-153zM422 631h356q104 0 174 56t70 159q0 104 -68.5 159.5t-175.5 55.5h-356v-430z" />
<glyph unicode="S" horiz-adv-x="1251" d="M51 211l180 162q164 -174 376 -174h5q119 0 199 39q109 49 109 153q0 113 -215 150q-356 61 -400 77q-215 82 -215 308q0 188 180 295q152 92 353 92q319 0 512 -197l-177 -158q-156 154 -348 154q-100 0 -174 -37q-96 -47 -96 -137q0 -113 215 -147q350 -57 399 -76 q215 -84 215 -312q0 -207 -188 -327q-160 -102 -379 -103q-326 0 -551 238z" />
<glyph unicode="T" horiz-adv-x="1064" d="M37 1061v225h991v-225h-377v-1061h-237v1061h-377z" />
<glyph unicode="U" horiz-adv-x="1441" d="M150 524v762h237v-711q0 -158 86 -264q93 -112 245 -112h3q156 0 248 112q86 104 86 264v711h237v-762q0 -242 -163.5 -396.5t-407.5 -154.5q-242 0 -406.5 155.5t-164.5 395.5z" />
<glyph unicode="V" horiz-adv-x="1138" d="M0 1286h256l313 -786l314 786h256l-570 -1313z" />
<glyph unicode="W" horiz-adv-x="1705" d="M18 1286h250l291 -762l293 693l297 -693l287 762h252l-539 -1313l-297 746l-309 -746z" />
<glyph unicode="X" horiz-adv-x="1138" d="M39 0l395 643l-395 643h283l247 -436l265 436h266l-395 -643l395 -643h-283l-248 436l-264 -436h-266z" />
<glyph unicode="Y" d="M8 1286h275l305 -500l305 500h274l-460 -719v-567h-238v567z" />
<glyph unicode="Z" horiz-adv-x="1214" d="M63 0l670 1061h-633v225h1051l-680 -1061h672v-225h-1080z" />
<glyph unicode="[" horiz-adv-x="569" d="M164 -197v1577h446v-200h-221v-1176h221v-201h-446z" />
<glyph unicode="\" horiz-adv-x="681" d="M-10 1313h225l477 -1340h-225z" />
<glyph unicode="]" horiz-adv-x="569" d="M-41 4h221v1176h-221v200h447v-1577h-447v201z" />
<glyph unicode="^" horiz-adv-x="1228" d="M135 498l383 788h193l383 -788h-213l-267 575l-266 -575h-213z" />
<glyph unicode="_" horiz-adv-x="1024" d="M0 -154h1024v-102h-1024v102z" />
<glyph unicode="`" horiz-adv-x="491" d="M4 1202v148l402 -103v-147z" />
<glyph unicode="a" horiz-adv-x="1253" d="M61 496q0 215 155 368.5t370 153.5q219 0 315 -148h4v121h213v-991h-213v121h-4q-111 -147 -326 -148q-219 0 -366.5 151.5t-147.5 371.5zM287 496q0 -133 92 -227.5t223 -94.5t221 95.5t90 226.5t-90 226t-221 95t-223 -94t-92 -227z" />
<glyph unicode="b" horiz-adv-x="1253" d="M135 0v1286h213v-416h4q43 70 144 111q88 37 180 37q221 0 368.5 -149.5t147.5 -372.5t-147.5 -373t-368.5 -150q-92 0 -180 37q-100 41 -144 111h-4v-121h-213zM348 496q0 -137 86 -229.5t223 -92.5t223.5 92.5t86.5 229.5t-86 229t-224 92q-137 0 -223 -92t-86 -229z " />
<glyph unicode="c" horiz-adv-x="1099" d="M61 496q0 229 158 375.5t389 146.5q279 0 445 -240l-187 -110q-97 149 -256 149h-2q-137 0 -229 -92t-92 -229t92 -229.5t229 -92.5q164 0 258 150l187 -111q-72 -113 -192 -176.5t-253 -63.5q-229 0 -388 147.5t-159 375.5z" />
<glyph unicode="d" horiz-adv-x="1253" d="M61 496q0 215 155 368.5t370 153.5q219 0 315 -148h4v416h213v-1286h-213v121h-4q-111 -147 -326 -148q-219 0 -366.5 151.5t-147.5 371.5zM287 496q0 -133 92 -227.5t223 -94.5t221 95.5t90 226.5t-90 226t-221 95t-223 -94t-92 -227z" />
<glyph unicode="e" horiz-adv-x="1216" d="M78 496q0 229 157.5 375.5t389.5 146.5q184 0 333 -133q180 -160 181 -424v-39h-824q8 -113 98.5 -186.5t204.5 -73.5h2q171 0 285 153l180 -100q-190 -240 -460 -242q-231 0 -389 146.5t-158 376.5zM315 598h574q-70 231 -293 231q-106 0 -180 -63.5t-101 -167.5z" />
<glyph unicode="f" horiz-adv-x="645" d="M51 586v200h139v168q0 166 101.5 262.5t267.5 96.5q98 0 164 -27l-88 -192q-43 18 -94 18q-61 0 -99.5 -42t-38.5 -103v-181h213v-200h-213v-928h-213v928h-139z" />
<glyph unicode="g" horiz-adv-x="1216" d="M61 506q0 223 141.5 367.5t364.5 144.5q201 0 310 -144h4v117h200v-880q0 -225 -146.5 -371t-371.5 -146q-258 0 -418 197l174 127q88 -123 234 -123q139 0 233.5 78t94.5 215v66q-137 -154 -338 -154q-213 0 -347.5 145.5t-134.5 360.5zM287 510q0 -133 83 -221t216 -88 q129 0 212 89t83 218q0 127 -85 218t-210 91q-127 0 -213 -90t-86 -217z" />
<glyph unicode="h" d="M135 0v1286h213v-420h4q98 152 303 152q170 0 281 -127q104 -121 104 -293v-598h-213v551q0 254 -235 254q-113 0 -178.5 -67.5t-65.5 -182.5v-555h-213z" />
<glyph unicode="i" horiz-adv-x="491" d="M127 1194q0 49 35 84t84 35t84 -35t35 -84t-35 -84t-84 -35t-84 35t-35 84zM139 0v991h213v-991h-213z" />
<glyph unicode="j" horiz-adv-x="491" d="M-47 -236q100 53 135 91q51 55 51 149v987h213v-1001q0 -254 -313 -396zM127 1194q0 49 35 84t84 35t84 -35t35 -84t-35 -84t-84 -35t-84 35t-35 84z" />
<glyph unicode="k" horiz-adv-x="1024" d="M29 414v200h139v672h213v-672h108l261 377h258l-336 -467l352 -524h-252l-262 414h-129v-414h-213v414h-139z" />
<glyph unicode="l" horiz-adv-x="532" d="M139 360v926h213v-887q0 -141 88 -192l115 -66l-94 -168q-180 88 -244 156q-78 84 -78 231z" />
<glyph unicode="m" horiz-adv-x="1593" d="M135 0v621q0 168 98.5 282.5t264.5 114.5q229 0 297 -176h4q68 176 297 176q166 0 264 -115t98 -282v-621h-213v618q0 78 -41 132q-47 55 -123 55q-178 0 -178 -215v-590h-213v590q0 215 -178 215q-76 0 -120 -54.5t-44 -132.5v-618h-213z" />
<glyph unicode="n" d="M135 0v991h213v-125h4q98 152 303 152q170 0 281 -127q104 -121 104 -293v-598h-213v551q0 254 -235 254q-113 0 -178.5 -67.5t-65.5 -182.5v-555h-213z" />
<glyph unicode="o" horiz-adv-x="1216" d="M61 496q0 229 158 375.5t389 146.5t389 -146.5t158 -375.5q0 -227 -158.5 -375t-388.5 -148q-229 0 -388 148t-159 375zM287 496q0 -137 92 -229.5t229 -92.5t229.5 92t92.5 230q0 137 -92.5 229t-229.5 92t-229 -92t-92 -229z" />
<glyph unicode="p" horiz-adv-x="1253" d="M135 -342v1333h213v-121h4q119 147 326 148q219 0 366.5 -151.5t147.5 -370.5q0 -215 -154.5 -369t-369.5 -154q-219 0 -316 148h-4v-463h-213zM340 496q0 -131 90 -226.5t221 -95.5t223.5 94.5t92.5 227.5t-92.5 227t-223.5 94t-221 -95t-90 -226z" />
<glyph unicode="q" horiz-adv-x="1253" d="M61 496q0 219 147.5 370.5t366.5 151.5q207 0 326 -148h4v121h213v-1333h-213v463h-4q-96 -147 -315 -148q-215 0 -370 154t-155 369zM287 496q0 -133 92 -227.5t223 -94.5t221 95.5t90 226.5t-90 226t-221 95t-223 -94t-92 -227z" />
<glyph unicode="r" horiz-adv-x="645" d="M135 0v991h201v-108h4q57 135 195 135q70 0 116 -31l-76 -211q-35 29 -79 29q-63 0 -105.5 -43t-42.5 -107v-655h-213z" />
<glyph unicode="s" horiz-adv-x="948" d="M41 147l145 148q135 -145 312 -145q68 0 125 28q71 35 71 94q0 92 -129 117l-121 23q-162 31 -239 77q-117 72 -117 205q0 152 123 242q109 82 266 82q201 0 393 -137l-120 -150q-131 111 -267 111q-66 0 -118 -29q-63 -35 -64 -96q0 -80 129 -105l215 -41 q262 -49 262 -264q0 -160 -133 -252q-119 -82 -287 -82q-241 0 -446 174z" />
<glyph unicode="t" horiz-adv-x="606" d="M45 791v200h121v262l213 60v-322h170v-200h-170v-392q0 -141 88 -192l115 -66l-95 -168q-180 88 -243 156q-78 84 -78 231v431h-121z" />
<glyph unicode="u" d="M135 418v573h213v-555q0 -104 67.5 -177t172.5 -73q104 0 171.5 73t67.5 177v555h213v-573q0 -195 -129 -320t-323 -125q-195 0 -324 125t-129 320z" />
<glyph unicode="v" horiz-adv-x="909" d="M-4 991h237l220 -567h4l219 567h237l-458 -1018z" />
<glyph unicode="w" horiz-adv-x="1253" d="M10 991h230l176 -536h4l207 475l207 -475h4l176 536h229l-383 -1018l-231 537h-4l-232 -537z" />
<glyph unicode="x" horiz-adv-x="987" d="M18 0l361 485l-350 506h266l207 -340l203 340h249l-348 -493l363 -498h-271l-209 332l-219 -332h-252z" />
<glyph unicode="y" d="M135 418v573h213v-581q0 -236 234 -236q246 0 245 256v561h213v-960q0 -207 -157 -332q-131 -104 -295 -105q-141 0 -233.5 44.5t-186.5 150.5l180 111q109 -104 227 -105q117 0 191 72t74 188v54h-4q-121 -135 -299 -136q-184 0 -295 133q-107 126 -107 312z" />
<glyph unicode="z" horiz-adv-x="909" d="M37 0l479 791h-438v200h794l-481 -790h469v-201h-823z" />
<glyph unicode="{" horiz-adv-x="569" d="M-20 508v168q57 0 116 31q68 37 68 90v356q0 94 80 164q76 63 172 63h194v-163h-110q-111 0 -111 -111v-328q0 -78 -61.5 -131t-139.5 -53v-4q78 0 139.5 -53.5t61.5 -130.5v-328q0 -111 111 -111h110v-164h-194q-96 0 -174 67t-78 161v356q0 53 -68 90q-59 31 -116 31z " />
<glyph unicode="|" horiz-adv-x="454" d="M121 -27v1340h213v-1340h-213z" />
<glyph unicode="}" horiz-adv-x="569" d="M-41 -33h111q111 0 110 111v328q0 78 61.5 131t139.5 53v4q-78 0 -139.5 53t-61.5 131v328q0 111 -110 111h-111v163h195q96 0 172 -63q80 -70 80 -164v-356q0 -53 67 -90q60 -31 117 -31v-168q-57 0 -117 -31q-68 -37 -67 -90v-356q0 -94 -78 -161t-174 -67h-195v164z " />
<glyph unicode="~" horiz-adv-x="1228" d="M141 522q78 174 256 174q76 0 235 -70.5t202 -70.5q90 0 180 147l73 -188q-117 -172 -256 -172q-78 0 -221 70.5t-223 70.5q-102 1 -172 -149z" />
<glyph horiz-adv-x="1019" d="M-84 535l43 96h115q6 51 24 149h-135l43 99h121q84 229 221 374q170 180 383 181q193 -1 338 -138l-47 -319l-98 12q0 322 -193 322q-211 0 -330 -432h353l-43 -99h-336q-12 -49 -33 -149h301l-43 -96h-274q-12 -84 -13 -152q0 -115 43 -186q53 -88 160 -88 q119 0 207 139q49 78 104 244l113 -21l-111 -385q-158 -109 -325 -109q-227 0 -340 173q-96 145 -96 385h-152z" />
<glyph unicode="&#xa1;" horiz-adv-x="569" d="M141 -295l54 954h180l53 -954h-287zM160 893q0 53 35.5 89t89.5 36q53 0 89 -36t36 -89t-36 -89t-89 -36q-51 0 -88 37t-37 88z" />
<glyph unicode="&#xa2;" horiz-adv-x="1097" d="M61 496q0 182 121 326.5t301 183.5v159h213v-155q221 -35 357 -232l-187 -110q-106 150 -258 149q-133 0 -227 -94t-94 -227t94 -227.5t227 -94.5q156 0 258 150l187 -111q-123 -190 -357 -231v-156h-213v162q-180 37 -301 181t-121 327z" />
<glyph unicode="&#xa3;" horiz-adv-x="909" d="M25 0v164q90 2 133 55q35 43 51 139l33 201h-129v213h163l37 221q53 319 357 320q104 0 178 -27l-37 -213q-57 39 -117 39q-137 0 -168 -184l-26 -156h266v-213h-303l-31 -184q-16 -104 -55 -150h459v-225h-811z" />
<glyph unicode="&#xa4;" horiz-adv-x="1228" d="M86 233l115 115q-94 129 -95 295q0 166 95 295l-115 115l125 125l115 -117q129 90 288 90q160 0 289 -90l115 117l125 -125l-115 -115q94 -129 94 -295t-94 -295l115 -115l-125 -124l-115 116q-129 -90 -289 -90t-288 90l-115 -116zM319 643q0 -129 84 -218t211 -89 t211 89t84 218t-84 218t-211 89t-211 -89t-84 -218z" />
<glyph unicode="&#xa5;" horiz-adv-x="1097" d="M8 1286h256l291 -500l285 500h250l-363 -604h225v-152h-297v-104h297v-152h-297v-274h-213v274h-297v152h297v104h-297v152h226z" />
<glyph unicode="&#xa6;" horiz-adv-x="454" d="M121 -27v484h213v-484h-213zM121 829v484h213v-484h-213z" />
<glyph unicode="&#xa7;" horiz-adv-x="1214" d="M61 709q0 115 78 189.5t193 76.5q-23 59 -23 80q0 117 115 192q100 66 223 66q219 0 371 -144l-137 -151q-104 106 -244 106q-127 0 -127 -77q0 -53 74 -72l325 -82q244 -61 244 -279q0 -113 -74 -200q-76 -94 -188 -95q-18 0 -27 3q25 -51 25 -105q0 -78 -92 -151 q-115 -92 -303 -93q-227 1 -383 146l135 157q109 -115 282 -114q61 0 107 24q53 31 53 88q0 63 -88 84l-311 70q-227 51 -228 281zM262 709q0 -76 121 -103l391 -88q45 -10 90 -10q39 0 63.5 29.5t24.5 70.5q0 82 -116 107l-377 82q-66 14 -103 14q-94 0 -94 -102z" />
<glyph unicode="&#xa8;" horiz-adv-x="491" d="M-6 1206q0 45 30.5 76t75.5 31t76 -31t31 -76t-31 -75.5t-76 -30.5t-75.5 30.5t-30.5 75.5zM285 1206q0 45 30.5 76t75.5 31t76 -31t31 -76t-31 -75.5t-76 -30.5t-75.5 30.5t-30.5 75.5z" />
<glyph unicode="&#xa9;" horiz-adv-x="1638" d="M150 643q0 281 194.5 475.5t474.5 194.5q281 0 475.5 -194.5t194.5 -475.5t-194.5 -475.5t-475.5 -194.5t-475 194.5t-194 475.5zM326 643q0 -215 139 -366.5t354 -151.5t354.5 151.5t139.5 366.5t-139.5 366.5t-354.5 151.5t-354 -151.5t-139 -366.5zM467 643 q0 174 101.5 284.5t273.5 110.5q129 0 215 -72.5t106 -199.5h-157q-12 55 -58.5 88t-103.5 33q-94 0 -146 -78q-43 -66 -43 -166t43 -166q51 -78 146 -78q57 0 103 33t59 88h157q-20 -127 -106 -199.5t-215 -72.5q-172 0 -273.5 110.5t-101.5 284.5z" />
<glyph unicode="&#xaa;" horiz-adv-x="815" d="M37 999q0 141 98 227.5t242 86.5q139 0 184 -94h4v77h176v-594h-176v78h-4q-47 -94 -192 -94q-143 0 -237.5 86t-94.5 227zM213 999q0 -76 52 -125t130 -49q70 0 126.5 52.5t56.5 121.5q0 74 -54.5 124.5t-128.5 50.5q-76 0 -129 -49.5t-53 -125.5z" />
<glyph unicode="&#xab;" horiz-adv-x="1024" d="M86 561l303 457l182 -64l-276 -393l276 -393l-182 -64zM453 561l303 457l182 -64l-276 -393l276 -393l-182 -64z" />
<glyph unicode="&#xac;" horiz-adv-x="1228" d="M96 637v213h1037v-627h-213v414h-824z" />
<glyph unicode="&#xad;" horiz-adv-x="692" d="M16 356l68 250h504l-68 -250h-504z" />
<glyph unicode="&#xae;" horiz-adv-x="1638" d="M150 643q0 281 194.5 475.5t474.5 194.5q281 0 475.5 -194.5t194.5 -475.5t-194.5 -475.5t-475.5 -194.5t-475 194.5t-194 475.5zM326 643q0 -215 139 -366.5t354 -151.5t354.5 151.5t139.5 366.5t-139.5 366.5t-354.5 151.5t-354 -151.5t-139 -366.5zM553 272v746h291 q283 0 282 -227q0 -174 -178 -201l187 -318h-183l-178 312h-57v-312h-164zM717 711h141q41 0 73 25.5t32 64.5t-32 64.5t-73 25.5h-141v-180z" />
<glyph unicode="&#xaf;" horiz-adv-x="491" d="M12 1135v127h467v-127h-467z" />
<glyph unicode="&#xb0;" horiz-adv-x="819" d="M117 1020q0 121 86 207t207 86t206.5 -86t85.5 -207t-86 -207t-206 -86q-121 0 -207 86t-86 207zM256 1020q0 -63 45 -108.5t109 -45.5q63 0 108 45t45 109q0 63 -45 108.5t-108 45.5t-108.5 -45.5t-45.5 -108.5z" />
<glyph unicode="&#xb1;" horiz-adv-x="1228" d="M96 0v213h1037v-213h-1037zM96 551v213h408v272h213v-272h416v-213h-416v-272h-213v272h-408z" />
<glyph unicode="&#xb2;" horiz-adv-x="739" d="M37 1145q125 168 344 168q127 0 217 -58q104 -66 104 -186q0 -117 -124 -201l-297 -200v-4h419v-140h-645v142l398 290q74 53 73 107q0 53 -57 84q-47 27 -104 27q-115 0 -185 -103z" />
<glyph unicode="&#xb3;" horiz-adv-x="716" d="M25 610l116 105q88 -78 185 -78q72 0 131 43t59 113q0 78 -78 116q-61 33 -145 33q-43 0 -100 -14l194 219h-326v139h631l-231 -262q98 -6 164.5 -73.5t66.5 -164.5q0 -133 -108 -215q-100 -74 -238 -73q-215 0 -321 112z" />
<glyph unicode="&#xb4;" horiz-adv-x="491" d="M86 1100v147l401 103v-148z" />
<glyph unicode="&#xb5;" d="M135 -342v1333h213v-555q0 -104 67.5 -177t172.5 -73q104 0 171.5 73t67.5 177v555h213v-573q0 -188 -124.5 -316.5t-313.5 -128.5q-162 0 -250 127h-4v-442h-213z" />
<glyph unicode="&#xb6;" horiz-adv-x="1269" d="M102 952q0 186 113 267q94 68 289 67h532v-1286h-188v1135h-176v-1135h-189v629q-381 0 -381 323z" />
<glyph unicode="&#xb7;" horiz-adv-x="548" d="M111 496q0 68 48 115.5t115 47.5q68 0 116 -48t48 -115q0 -68 -48 -116t-116 -48t-115.5 48t-47.5 116z" />
<glyph unicode="&#xb8;" horiz-adv-x="491" d="M260 -41q76 -4 123 -43q53 -45 53 -117q0 -162 -176 -172v107q70 4 70 59t-70 60v106z" />
<glyph unicode="&#xb9;" horiz-adv-x="419" d="M37 1004v161l301 148v-789h-176v549z" />
<glyph unicode="&#xba;" horiz-adv-x="790" d="M51 999q0 137 102.5 225.5t241.5 88.5q141 0 242.5 -87t101.5 -227q0 -137 -102 -225t-242 -88q-193 0 -295 152q-49 73 -49 161zM227 999q0 -72 48.5 -116.5t119.5 -44.5q72 0 120 45t48 116q0 72 -48 117t-120 45t-120 -45t-48 -117z" />
<glyph unicode="&#xbb;" horiz-adv-x="1024" d="M86 168l276 393l-276 393l182 64l303 -457l-303 -457zM453 168l276 393l-276 393l182 64l303 -457l-303 -457z" />
<glyph unicode="&#xbc;" horiz-adv-x="1667" d="M66 1004v161l301 148v-789h-177v549zM440 0l426 1286h197l-426 -1286h-197zM934 168l280 604h164l-219 -453h178v181h164v-181h101v-151h-101v-168h-164v168h-403z" />
<glyph unicode="&#xbd;" horiz-adv-x="1667" d="M66 1004v161l301 148v-789h-177v549zM385 0l426 1286h197l-426 -1286h-197zM936 621q125 168 344 167q127 0 217 -57q104 -66 105 -186q0 -117 -125 -201l-297 -201v-4h419v-139h-645v141l398 291q74 53 73 107q0 53 -57 84q-47 27 -104 26q-115 0 -185 -102z" />
<glyph unicode="&#xbe;" horiz-adv-x="1667" d="M25 610l116 105q88 -78 185 -78q72 0 131 43t59 113q0 78 -78 116q-61 33 -145 33q-43 0 -100 -14l194 219h-326v139h631l-231 -262q98 -6 164.5 -73.5t66.5 -164.5q0 -133 -108 -215q-100 -74 -238 -73q-215 0 -321 112zM553 0l426 1286h197l-426 -1286h-197zM934 168 l280 604h164l-219 -453h178v181h164v-181h101v-151h-101v-168h-164v168h-403z" />
<glyph unicode="&#xbf;" horiz-adv-x="1138" d="M111 145q0 182 116.5 303t298.5 121v90h189v-268q-27 6 -60 6q-123 0 -204 -63q-90 -72 -91 -191q0 -111 77 -181.5t190 -70.5q152 0 274 129l162 -143q-170 -199 -436 -199q-221 0 -365 121q-152 129 -151 346zM496 893q0 53 35.5 89t89.5 36q53 0 88.5 -36t35.5 -89 t-35.5 -89t-88.5 -36q-51 0 -88 37t-37 88z" />
<glyph unicode="&#xc0;" horiz-adv-x="1251" d="M0 0l469 1073h-295v213h533l544 -1286h-256l-98 242h-545l-98 -242h-254zM223 1554v148l402 -103v-147zM438 455h375l-186 460z" />
<glyph unicode="&#xc1;" horiz-adv-x="1251" d="M0 0l469 1073h-295v213h533l544 -1286h-256l-98 242h-545l-98 -242h-254zM438 455h375l-186 460zM627 1456v148l401 102v-147z" />
<glyph unicode="&#xc2;" horiz-adv-x="1251" d="M0 0l469 1073h-295v213h533l544 -1286h-256l-98 242h-545l-98 -242h-254zM395 1372v137l230 76l229 -76v-137l-229 80zM438 455h375l-186 460z" />
<glyph unicode="&#xc3;" horiz-adv-x="1251" d="M0 0l469 1073h-295v213h533l544 -1286h-256l-98 242h-545l-98 -242h-254zM385 1464l33 125q70 66 157 68q20 0 78 -35t92 -33q57 2 119 64l-37 -137q-76 -61 -145 -64q-27 -2 -86 32t-98 32q-60 -3 -113 -52zM438 455h375l-186 460z" />
<glyph unicode="&#xc4;" horiz-adv-x="1251" d="M0 0l469 1073h-295v213h533l544 -1286h-256l-98 242h-545l-98 -242h-254zM326 1501q0 45 30.5 76t75.5 31t76 -31t31 -76t-31 -75.5t-76 -30.5t-75.5 30.5t-30.5 75.5zM438 455h375l-186 460zM617 1501q0 45 30.5 76t75.5 31t76 -31t31 -76t-31 -75.5t-76 -30.5 t-75.5 30.5t-30.5 75.5z" />
<glyph unicode="&#xc5;" horiz-adv-x="1251" d="M0 0l469 1073h-295v213h533l544 -1286h-256l-98 242h-545l-98 -242h-254zM422 1534q0 66 45 111t111 45t110.5 -45t44.5 -111t-45 -111t-110 -45q-63 0 -109.5 46.5t-46.5 109.5zM438 455h375l-186 460zM504 1534q0 -31 21.5 -52.5t52.5 -21.5t52 21.5t21 52.5 t-21.5 52.5t-51.5 21.5q-31 0 -52.5 -21.5t-21.5 -52.5z" />
<glyph unicode="&#xc6;" horiz-adv-x="1744" d="M16 0l504 1073h-297v213h1442v-225h-750v-289h519v-225h-519v-322h750v-225h-975v242h-321l-107 -242h-246zM463 455h227v501h-4z" />
<glyph unicode="&#xc7;" horiz-adv-x="1366" d="M68 643q0 287 200.5 478.5t489.5 191.5q338 0 549 -264l-197 -148q-129 186 -352 186q-182 0 -311.5 -131t-129.5 -313t129 -313t312 -131q225 0 356 178l193 -139q-211 -264 -549 -265q-289 0 -489.5 191.5t-200.5 478.5zM698 -41q76 -4 123 -43q53 -45 53 -117 q0 -162 -176 -172v107q70 4 70 59t-70 60v106z" />
<glyph unicode="&#xc8;" horiz-adv-x="1251" d="M31 547v225h153v514h987v-225h-749v-289h522v-225h-522v-322h749v-225h-987v547h-153zM264 1556v148l402 -102v-148z" />
<glyph unicode="&#xc9;" horiz-adv-x="1251" d="M31 547v225h153v514h987v-225h-749v-289h522v-225h-522v-322h749v-225h-987v547h-153zM666 1454v148l401 102v-148z" />
<glyph unicode="&#xca;" horiz-adv-x="1251" d="M31 547v225h153v514h987v-225h-749v-289h522v-225h-522v-322h749v-225h-987v547h-153zM436 1395v137l230 76l229 -76v-137l-229 80z" />
<glyph unicode="&#xcb;" horiz-adv-x="1251" d="M31 547v225h153v514h987v-225h-749v-289h522v-225h-522v-322h749v-225h-987v547h-153zM375 1501q0 45 30.5 76t75.5 31t76 -31t31 -76t-31 -75.5t-76 -30.5t-75.5 30.5t-30.5 75.5zM666 1501q0 45 30.5 76t75.5 31t76 -31t31 -76t-31 -75.5t-76 -30.5t-75.5 30.5 t-30.5 75.5z" />
<glyph unicode="&#xcc;" horiz-adv-x="569" d="M-115 1554v148l402 -103v-147zM166 0v1286h237v-1286h-237z" />
<glyph unicode="&#xcd;" horiz-adv-x="569" d="M166 0v1286h237v-1286h-237zM287 1454v148l401 102v-148z" />
<glyph unicode="&#xce;" horiz-adv-x="569" d="M55 1395v137l230 76l229 -76v-137l-229 80zM166 0v1286h237v-1286h-237z" />
<glyph unicode="&#xcf;" horiz-adv-x="569" d="M33 1501q0 45 30.5 76t75.5 31t76 -31t31 -76t-31 -75.5t-76 -30.5t-75.5 30.5t-30.5 75.5zM166 0v1286h237v-1286h-237zM324 1501q0 45 30.5 76t75.5 31t76 -31t31 -76t-31 -75.5t-76 -30.5t-75.5 30.5t-30.5 75.5z" />
<glyph unicode="&#xd0;" horiz-adv-x="1478" d="M25 571v201h153v514h543q293 0 487 -174q203 -180 203 -469q0 -285 -205 -467q-197 -176 -485 -176h-543v571h-153zM416 225h305q190 0 321.5 115t131.5 303t-131.5 303t-321.5 115h-305v-289h432v-201h-432v-346z" />
<glyph unicode="&#xd1;" horiz-adv-x="1366" d="M150 0v1313l829 -815v788h238v-1313l-830 815v-788h-237zM426 1368v125q51 61 141 61q25 0 90.5 -36.5t99.5 -36.5q55 0 103 59v-137q-66 -61 -129 -62q-31 0 -96.5 37t-108.5 37q-55 0 -100 -47z" />
<glyph unicode="&#xd2;" horiz-adv-x="1515" d="M68 643q0 289 199.5 479.5t490.5 190.5t490.5 -190.5t199.5 -479.5t-199.5 -479.5t-490.5 -190.5t-490.5 190.5t-199.5 479.5zM317 643q0 -184 128 -314t313 -130q184 0 312 130t128 314t-128 314t-312 130t-312.5 -130t-128.5 -314zM356 1577v147l402 -102v-147z" />
<glyph unicode="&#xd3;" horiz-adv-x="1515" d="M68 643q0 289 199.5 479.5t490.5 190.5t490.5 -190.5t199.5 -479.5t-199.5 -479.5t-490.5 -190.5t-490.5 190.5t-199.5 479.5zM317 643q0 -184 128 -314t313 -130q184 0 312 130t128 314t-128 314t-312 130t-312.5 -130t-128.5 -314zM758 1473v147l401 102v-147z" />
<glyph unicode="&#xd4;" horiz-adv-x="1515" d="M68 643q0 289 199.5 479.5t490.5 190.5t490.5 -190.5t199.5 -479.5t-199.5 -479.5t-490.5 -190.5t-490.5 190.5t-199.5 479.5zM317 643q0 -184 128 -314t313 -130q184 0 312 130t128 314t-128 314t-312 130t-312.5 -130t-128.5 -314zM528 1395v137l230 76l229 -76v-137 l-229 80z" />
<glyph unicode="&#xd5;" horiz-adv-x="1515" d="M68 643q0 289 199.5 479.5t490.5 190.5t490.5 -190.5t199.5 -479.5t-199.5 -479.5t-490.5 -190.5t-490.5 190.5t-199.5 479.5zM317 643q0 -184 128 -314t313 -130q184 0 312 130t128 314t-128 314t-312 130t-312.5 -130t-128.5 -314zM518 1485l33 125q70 66 158 67 q20 0 77.5 -34.5t92.5 -32.5q57 2 118 63l-36 -137q-76 -61 -146 -63q-27 -2 -86 31.5t-98 31.5q-60 -2 -113 -51z" />
<glyph unicode="&#xd6;" horiz-adv-x="1515" d="M68 643q0 287 200.5 478.5t489.5 191.5t489.5 -191.5t200.5 -478.5t-200.5 -478.5t-489.5 -191.5t-489.5 191.5t-200.5 478.5zM317 643q0 -182 129 -313t312 -131q182 0 311 131t129 313t-129 313t-311 131t-311.5 -131t-129.5 -313zM506 1501q0 45 30.5 76t75.5 31 t76 -31t31 -76t-31 -75.5t-76 -30.5t-75.5 30.5t-30.5 75.5zM797 1501q0 45 30.5 76t75.5 31t76 -31t31 -76t-31 -75.5t-76 -30.5t-75.5 30.5t-30.5 75.5z" />
<glyph unicode="&#xd7;" horiz-adv-x="1228" d="M135 186l332 332l-332 332l148 147l331 -331l332 331l148 -147l-334 -332l334 -332l-148 -147l-332 332l-331 -332z" />
<glyph unicode="&#xd8;" horiz-adv-x="1515" d="M68 643q0 287 200.5 478.5t489.5 191.5q238 0 424 -137l137 137l106 -109l-133 -133q156 -182 156 -428q0 -287 -200.5 -478.5t-489.5 -191.5q-238 0 -424 138l-137 -138l-107 109l133 133q-156 184 -155 428zM317 643q0 -141 82 -252l611 613q-113 84 -252 83 q-182 0 -311.5 -131t-129.5 -313zM506 283q113 -84 252 -84q182 0 311 131t129 313q0 139 -80 252z" />
<glyph unicode="&#xd9;" horiz-adv-x="1441" d="M150 524v762h237v-711q0 -160 86 -264q92 -113 248 -112q156 0 248 112q86 104 86 264v711h237v-762q0 -244 -163.5 -397.5t-407.5 -153.5t-407.5 154.5t-163.5 396.5zM319 1516v147l402 -102v-148z" />
<glyph unicode="&#xda;" horiz-adv-x="1441" d="M150 524v762h237v-711q0 -160 86 -264q92 -113 248 -112q156 0 248 112q86 104 86 264v711h237v-762q0 -244 -163.5 -397.5t-407.5 -153.5t-407.5 154.5t-163.5 396.5zM721 1411v148l401 102v-148z" />
<glyph unicode="&#xdb;" horiz-adv-x="1441" d="M150 524v762h237v-711q0 -158 86 -264q94 -113 248 -112q156 0 248 112q86 104 86 264v711h237v-762q0 -242 -163.5 -396.5t-407.5 -154.5q-242 0 -406.5 155.5t-164.5 395.5zM491 1395v137l230 76l229 -76v-137l-229 80z" />
<glyph unicode="&#xdc;" horiz-adv-x="1441" d="M150 524v762h237v-711q0 -158 86 -264q94 -113 248 -112q156 0 248 112q86 104 86 264v711h237v-762q0 -242 -163.5 -396.5t-407.5 -154.5q-242 0 -406.5 155.5t-164.5 395.5zM469 1501q0 45 30.5 76t75.5 31t76 -31t31 -76t-31 -75.5t-76 -30.5t-75.5 30.5t-30.5 75.5z M760 1501q0 45 30.5 76t75.5 31t76 -31t31 -76t-31 -75.5t-76 -30.5t-75.5 30.5t-30.5 75.5z" />
<glyph unicode="&#xdd;" d="M8 1286h275l305 -500l305 500h274l-460 -719v-567h-238v567zM590 1411v148l401 102v-148z" />
<glyph unicode="&#xde;" horiz-adv-x="1290" d="M31 246v225h153v815h238v-160h375q205 0 334 -118.5t129 -321.5t-129.5 -321.5t-333.5 -118.5h-375v-246h-238v246h-153zM422 471h356q104 0 174 56.5t70 158.5q0 104 -68.5 159.5t-175.5 55.5h-356v-430z" />
<glyph unicode="&#xdf;" horiz-adv-x="1099" d="M135 -342v1272q0 178 109.5 280.5t290.5 102.5q172 0 282 -88q119 -96 119 -264q0 -199 -162 -265v-4q102 -12 176 -117q70 -96 70 -202q0 -170 -139 -289q-133 -111 -308 -111q-61 0 -92 4l33 203q18 -6 45 -6q100 0 161.5 55.5t61.5 153.5q0 100 -73 162 q-70 55 -172 61v164q82 2 134 47t52 127q0 86 -52.5 139.5t-138.5 53.5q-94 0 -143 -74q-41 -61 -41 -162v-1243h-213z" />
<glyph unicode="&#xe0;" horiz-adv-x="1253" d="M61 496q0 217 154 369.5t371 152.5q219 0 315 -148h4v121h213v-991h-213v121h-4q-111 -147 -326 -148q-221 0 -367.5 150.5t-146.5 372.5zM205 1264v141l381 -98v-140zM287 496q0 -133 91 -227.5t224 -94.5q131 0 221 94t90 228q0 133 -90 227t-221 94q-133 0 -224 -94 t-91 -227z" />
<glyph unicode="&#xe1;" horiz-adv-x="1253" d="M61 496q0 217 154 369.5t371 152.5q219 0 315 -148h4v121h213v-991h-213v121h-4q-111 -147 -326 -148q-221 0 -367.5 150.5t-146.5 372.5zM287 496q0 -133 91 -227.5t224 -94.5q131 0 221 94t90 228q0 133 -90 227t-221 94q-133 0 -224 -94t-91 -227zM586 1167v140 l381 98v-141z" />
<glyph unicode="&#xe2;" horiz-adv-x="1253" d="M61 496q0 217 154 369.5t371 152.5q219 0 315 -148h4v121h213v-991h-213v121h-4q-111 -147 -326 -148q-221 0 -367.5 150.5t-146.5 372.5zM287 496q0 -133 91 -227.5t224 -94.5q131 0 221 94t90 228q0 133 -90 227t-221 94q-133 0 -224 -94t-91 -227zM367 1085v132 l219 71l217 -71v-132l-217 78z" />
<glyph unicode="&#xe3;" horiz-adv-x="1253" d="M61 496q0 217 154 369.5t371 152.5q219 0 315 -148h4v121h213v-991h-213v121h-4q-111 -147 -326 -148q-221 0 -367.5 150.5t-146.5 372.5zM287 496q0 -133 91 -227.5t224 -94.5q131 0 221 94t90 228q0 133 -90 227t-221 94q-133 0 -224 -94t-91 -227zM358 1178l31 118 q68 63 150 66q18 0 73.5 -34t87.5 -32q53 2 113 62l-35 -131q-74 -57 -137 -60q-29 -2 -84 30t-92 30q-56 -2 -107 -49z" />
<glyph unicode="&#xe4;" horiz-adv-x="1253" d="M61 496q0 215 155 368.5t370 153.5q219 0 315 -148h4v121h213v-991h-213v121h-4q-111 -147 -326 -148q-219 0 -366.5 151.5t-147.5 371.5zM287 496q0 -133 92 -227.5t223 -94.5t221 95.5t90 226.5t-90 226t-221 95t-223 -94t-92 -227zM375 1206q0 45 30.5 76t75.5 31 t76 -31t31 -76t-31 -75.5t-76 -30.5t-75.5 30.5t-30.5 75.5zM666 1206q0 45 30.5 76t75.5 31t76 -31t31 -76t-31 -75.5t-76 -30.5t-75.5 30.5t-30.5 75.5z" />
<glyph unicode="&#xe5;" horiz-adv-x="1253" d="M61 496q0 215 155 368.5t370 153.5q219 0 315 -148h4v121h213v-991h-213v121h-4q-111 -147 -326 -148q-219 0 -366.5 151.5t-147.5 371.5zM287 496q0 -133 92 -227.5t223 -94.5t221 95.5t90 226.5t-90 226t-221 95t-223 -94t-92 -227zM446 1239q0 66 45 111t111 45 t110.5 -45t44.5 -111t-45 -111t-110 -45q-63 0 -109.5 46.5t-46.5 109.5zM528 1239q0 -31 21.5 -52.5t52.5 -21.5t52 21.5t21 52.5t-21.5 52.5t-51.5 21.5q-31 0 -52.5 -21.5t-21.5 -52.5z" />
<glyph unicode="&#xe6;" horiz-adv-x="2048" d="M72 496q0 215 154.5 368.5t369.5 153.5q219 0 315 -148h4v121h189v-131h4q121 158 342 158q193 0 346 -133q180 -158 180 -424v-39h-835q63 -260 315 -260q172 0 287 153l180 -100q-190 -240 -473 -242q-90 0 -190 41q-115 47 -152 117h-4v-131h-189v121h-4 q-111 -147 -325 -148q-219 0 -366.5 151.5t-147.5 371.5zM297 496q0 -133 92 -227.5t223 -94.5t221.5 95.5t90.5 226.5t-90.5 226t-221.5 95t-223 -94t-92 -227zM1141 598h585q-74 231 -292 231q-219 0 -293 -231z" />
<glyph unicode="&#xe7;" horiz-adv-x="1099" d="M61 496q0 229 158 375.5t389 146.5q279 0 445 -240l-187 -110q-98 150 -258 149q-137 0 -229 -92t-92 -229t92 -229.5t229 -92.5q164 0 258 150l187 -111q-72 -113 -192 -176.5t-253 -63.5q-229 0 -388 147.5t-159 375.5zM565 -41q76 -4 123 -43q53 -45 53 -117 q0 -162 -176 -172v107q70 4 70 59t-70 60v106z" />
<glyph unicode="&#xe8;" horiz-adv-x="1216" d="M78 496q0 231 160 378q154 143 387 144q184 0 333 -133q180 -160 181 -424v-39h-824q8 -113 98.5 -186.5t204.5 -73.5q172 -1 287 153l180 -100q-190 -240 -460 -242q-231 0 -389 146.5t-158 376.5zM244 1264v141l381 -98v-140zM315 598h574q-70 231 -293 231 q-106 0 -180 -63.5t-101 -167.5z" />
<glyph unicode="&#xe9;" horiz-adv-x="1216" d="M78 496q0 231 160 378q154 143 387 144q184 0 333 -133q180 -160 181 -424v-39h-824q8 -113 98.5 -186.5t204.5 -73.5q172 -1 287 153l180 -100q-190 -240 -460 -242q-231 0 -389 146.5t-158 376.5zM315 598h574q-70 231 -293 231q-106 0 -180 -63.5t-101 -167.5z M625 1167v140l381 98v-141z" />
<glyph unicode="&#xea;" horiz-adv-x="1216" d="M78 496q0 231 160 378q154 143 387 144q184 0 333 -133q180 -160 181 -424v-39h-824q8 -113 98.5 -186.5t204.5 -73.5q172 -1 287 153l180 -100q-190 -240 -460 -242q-231 0 -389 146.5t-158 376.5zM315 598h574q-70 231 -293 231q-106 0 -180 -63.5t-101 -167.5z M406 1087v132l219 71l217 -71v-132l-217 78z" />
<glyph unicode="&#xeb;" horiz-adv-x="1216" d="M78 496q0 229 157.5 375.5t389.5 146.5q184 0 333 -133q180 -160 181 -424v-39h-824q8 -113 98.5 -186.5t204.5 -73.5q172 -1 287 153l180 -100q-190 -240 -460 -242q-231 0 -389 146.5t-158 376.5zM315 598h574q-70 231 -293 231q-106 0 -180 -63.5t-101 -167.5z M356 1206q0 45 30.5 76t75.5 31t76 -31t31 -76t-31 -75.5t-76 -30.5t-75.5 30.5t-30.5 75.5zM647 1206q0 45 30.5 76t75.5 31t76 -31t31 -76t-31 -75.5t-76 -30.5t-75.5 30.5t-30.5 75.5z" />
<glyph unicode="&#xec;" horiz-adv-x="491" d="M-111 1243v141l361 -98v-139zM139 0v991h213v-991h-213z" />
<glyph unicode="&#xed;" horiz-adv-x="491" d="M139 0v991h213v-991h-213zM250 1147v139l381 98v-141z" />
<glyph unicode="&#xee;" horiz-adv-x="491" d="M16 1100v137l230 76l229 -76v-137l-229 80zM139 0v991h213v-991h-213z" />
<glyph unicode="&#xef;" horiz-adv-x="491" d="M-6 1206q0 45 30.5 76t75.5 31t76 -31t31 -76t-31 -75.5t-76 -30.5t-75.5 30.5t-30.5 75.5zM139 0v991h213v-991h-213zM285 1206q0 45 30.5 76t75.5 31t76 -31t31 -76t-31 -75.5t-76 -30.5t-75.5 30.5t-30.5 75.5z" />
<glyph unicode="&#xf0;" horiz-adv-x="1216" d="M61 475q0 223 164 365q158 135 383 135q164 0 262 -96h4q-74 131 -233 254l-219 -101l-92 92l190 88q-106 63 -192 84l174 99q104 -35 200 -99l207 97l97 -95l-187 -84q336 -272 336 -655q0 -256 -143 -418q-152 -168 -404 -168q-227 0 -383 136q-164 143 -164 366z M287 475q0 -137 92 -225t229 -88t229.5 88t92.5 225q0 135 -92.5 223t-229.5 88t-229 -88t-92 -223z" />
<glyph unicode="&#xf1;" d="M135 0v991h213v-125h4q98 152 303 152q170 0 281 -127q104 -121 104 -293v-598h-213v551q0 254 -235 254q-113 0 -178.5 -67.5t-65.5 -182.5v-555h-213zM371 1114v125q51 61 141 61q25 0 90.5 -36.5t99.5 -36.5q55 0 103 59v-137q-66 -61 -129 -62q-31 0 -96.5 37 t-108.5 37q-55 0 -100 -47z" />
<glyph unicode="&#xf2;" horiz-adv-x="1216" d="M61 496q0 231 160 378q154 143 387 144q233 0 390 -145.5t157 -376.5q0 -229 -157.5 -376t-389.5 -147q-231 0 -389 147t-158 376zM227 1264v141l381 -98v-140zM287 496q0 -137 92 -229.5t229 -92.5t229.5 92t92.5 230q0 137 -92.5 229t-229.5 92t-229 -92t-92 -229z" />
<glyph unicode="&#xf3;" horiz-adv-x="1216" d="M61 496q0 231 160 378q154 143 387 144q233 0 390 -145.5t157 -376.5q0 -229 -157.5 -376t-389.5 -147q-231 0 -389 147t-158 376zM287 496q0 -137 92 -229.5t229 -92.5t229.5 92t92.5 230q0 137 -92.5 229t-229.5 92t-229 -92t-92 -229zM608 1167v140l381 98v-141z" />
<glyph unicode="&#xf4;" horiz-adv-x="1216" d="M61 496q0 231 160 378q154 143 387 144q233 0 390 -145.5t157 -376.5q0 -229 -157.5 -376t-389.5 -147q-231 0 -389 147t-158 376zM287 496q0 -137 92 -229.5t229 -92.5t229.5 92t92.5 230q0 137 -92.5 229t-229.5 92t-229 -92t-92 -229zM389 1085v132l219 71l217 -71 v-132l-217 78z" />
<glyph unicode="&#xf5;" horiz-adv-x="1216" d="M61 496q0 231 160 378q154 143 387 144q233 0 390 -145.5t157 -376.5q0 -229 -157.5 -376t-389.5 -147q-231 0 -389 147t-158 376zM287 496q0 -137 92 -229.5t229 -92.5t229.5 92t92.5 230q0 137 -92.5 229t-229.5 92t-229 -92t-92 -229zM381 1178l31 118q68 63 149 66 q18 0 73.5 -34t88.5 -32q53 2 113 62l-35 -131q-74 -57 -137 -60q-29 -2 -84.5 30t-92.5 30q-55 -2 -106 -49z" />
<glyph unicode="&#xf6;" horiz-adv-x="1216" d="M61 496q0 229 158 375.5t389 146.5t389 -146.5t158 -375.5q0 -227 -158.5 -375t-388.5 -148q-229 0 -388 148t-159 375zM287 496q0 -137 92 -229.5t229 -92.5t229.5 92t92.5 230q0 137 -92.5 229t-229.5 92t-229 -92t-92 -229zM356 1206q0 45 30.5 76t75.5 31t76 -31 t31 -76t-31 -75.5t-76 -30.5t-75.5 30.5t-30.5 75.5zM647 1206q0 45 30.5 76t75.5 31t76 -31t31 -76t-31 -75.5t-76 -30.5t-75.5 30.5t-30.5 75.5z" />
<glyph unicode="&#xf7;" horiz-adv-x="1228" d="M96 412v213h1037v-213h-1037zM451 94q0 68 48 116t115 48q68 0 116 -48t48 -116t-48 -116t-116 -48t-115.5 48t-47.5 116zM451 942q0 68 48 116t115 48q68 0 116 -48t48 -116t-48 -116t-116 -48t-115.5 48t-47.5 116z" />
<glyph unicode="&#xf8;" horiz-adv-x="1216" d="M61 496q0 229 158 375.5t389 146.5q188 0 332 -100l94 94l88 -88l-90 -93q123 -147 123 -335q0 -227 -158.5 -375t-388.5 -148q-190 0 -332 101l-94 -94l-88 88l92 92q-125 147 -125 336zM287 496q0 -103 53 -181l446 449q-76 53 -178 53q-137 0 -229 -92t-92 -229z M430 227q76 -53 178 -53q137 0 229.5 92t92.5 230q0 102 -53 180z" />
<glyph unicode="&#xf9;" d="M135 418v573h213v-555q0 -104 67.5 -177t172.5 -73q104 0 171.5 73t67.5 177v555h213v-573q0 -195 -128 -320t-324 -125q-197 0 -325 125t-128 320zM205 1223v141l381 -98v-140z" />
<glyph unicode="&#xfa;" d="M135 418v573h213v-555q0 -104 67.5 -177t172.5 -73q104 0 171.5 73t67.5 177v555h213v-573q0 -195 -128 -320t-324 -125q-197 0 -325 125t-128 320zM586 1126v140l381 98v-141z" />
<glyph unicode="&#xfb;" d="M135 418v573h213v-555q0 -104 67.5 -177t172.5 -73q104 0 171.5 73t67.5 177v555h213v-573q0 -195 -129 -320t-323 -125q-195 0 -324 125t-129 320zM358 1100v137l230 76l229 -76v-137l-229 80z" />
<glyph unicode="&#xfc;" d="M135 418v573h213v-555q0 -104 67.5 -177t172.5 -73q104 0 171.5 73t67.5 177v555h213v-573q0 -195 -129 -320t-323 -125q-195 0 -324 125t-129 320zM336 1206q0 45 30.5 76t75.5 31t76 -31t31 -76t-31 -75.5t-76 -30.5t-75.5 30.5t-30.5 75.5zM627 1206q0 45 30.5 76 t75.5 31t76 -31t31 -76t-31 -75.5t-76 -30.5t-75.5 30.5t-30.5 75.5z" />
<glyph unicode="&#xfd;" d="M135 418v573h213v-581q0 -236 234 -236q246 0 245 256v561h213v-960q0 -207 -157 -332q-131 -104 -295 -105q-139 0 -232.5 44.5t-187.5 150.5l180 111q109 -104 227 -105q117 0 191 72t74 188v54h-4q-121 -135 -299 -136q-182 0 -295 133q-107 126 -107 312zM586 1126 v140l381 98v-141z" />
<glyph unicode="&#xfe;" horiz-adv-x="1253" d="M135 -342v1628h213v-416h4q119 147 326 148q219 0 366.5 -151.5t147.5 -370.5q0 -215 -154.5 -369t-369.5 -154q-219 0 -316 148h-4v-463h-213zM340 496q0 -131 90 -226.5t221 -95.5t223.5 94.5t92.5 227.5t-92.5 227t-223.5 94t-221 -95t-90 -226z" />
<glyph unicode="&#xff;" d="M135 418v573h213v-581q0 -236 234 -236q246 0 245 256v561h213v-960q0 -207 -157 -332q-131 -104 -295 -105q-141 0 -233.5 44.5t-186.5 150.5l180 111q109 -104 227 -105q117 0 191 72t74 188v54h-4q-121 -135 -299 -136q-184 0 -295 133q-107 126 -107 312zM336 1206 q0 45 30.5 76t75.5 31t76 -31t31 -76t-31 -75.5t-76 -30.5t-75.5 30.5t-30.5 75.5zM627 1206q0 45 30.5 76t75.5 31t76 -31t31 -76t-31 -75.5t-76 -30.5t-75.5 30.5t-30.5 75.5z" />
<glyph unicode="&#x152;" horiz-adv-x="2238" d="M88 643q0 287 200.5 478.5t489.5 191.5q287 0 418 -176h4v149h979v-225h-754v-318h527v-225h-527v-293h754v-225h-979v168h-4q-150 -195 -418 -195q-289 0 -489.5 191.5t-200.5 478.5zM338 643q0 -182 129 -313t311 -131q150 0 262.5 87t159.5 232h-151v225h157 q-37 154 -154.5 249t-273.5 95q-182 0 -311 -131t-129 -313z" />
<glyph unicode="&#x153;" horiz-adv-x="2048" d="M72 496q0 229 157.5 375.5t388.5 146.5q125 0 237 -58.5t179 -162.5q147 221 416 221q193 0 346 -133q180 -158 180 -424v-39h-835q63 -260 315 -260q172 0 287 153l180 -100q-190 -240 -473 -242q-276 -2 -416 226q-150 -225 -416 -226q-231 0 -388.5 146.5 t-157.5 376.5zM297 496q0 -137 92 -229.5t229 -92.5t229.5 92t92.5 230q0 137 -92 229t-230 92q-137 0 -229 -92t-92 -229zM1141 598h585q-74 231 -292 231q-219 0 -293 -231z" />
<glyph unicode="&#x178;" d="M8 1286h275l305 -500l305 500h274l-460 -719v-567h-238v567zM336 1501q0 45 30.5 76t75.5 31t76 -31t31 -76t-31 -75.5t-76 -30.5t-75.5 30.5t-30.5 75.5zM627 1501q0 45 30.5 76t75.5 31t76 -31t31 -76t-31 -75.5t-76 -30.5t-75.5 30.5t-30.5 75.5z" />
<glyph unicode="&#x2c6;" horiz-adv-x="491" d="M16 1100v137l230 76l229 -76v-137l-229 80z" />
<glyph unicode="&#x2dc;" horiz-adv-x="491" d="M29 1114v125q51 61 141 61q25 0 90.5 -36.5t99.5 -36.5q55 0 103 59v-137q-66 -61 -129 -62q-31 0 -96.5 37t-108.5 37q-55 0 -100 -47z" />
<glyph unicode="&#x2000;" horiz-adv-x="862" />
<glyph unicode="&#x2001;" horiz-adv-x="1724" />
<glyph unicode="&#x2002;" horiz-adv-x="862" />
<glyph unicode="&#x2003;" horiz-adv-x="1724" />
<glyph unicode="&#x2004;" horiz-adv-x="574" />
<glyph unicode="&#x2005;" horiz-adv-x="431" />
<glyph unicode="&#x2006;" horiz-adv-x="287" />
<glyph unicode="&#x2007;" horiz-adv-x="287" />
<glyph unicode="&#x2008;" horiz-adv-x="215" />
<glyph unicode="&#x2009;" horiz-adv-x="344" />
<glyph unicode="&#x200a;" horiz-adv-x="95" />
<glyph unicode="&#x2010;" horiz-adv-x="606" d="M98 557v201h410v-201h-410z" />
<glyph unicode="&#x2011;" horiz-adv-x="606" d="M98 557v201h410v-201h-410z" />
<glyph unicode="&#x2012;" horiz-adv-x="606" d="M98 557v201h410v-201h-410z" />
<glyph unicode="&#x2013;" horiz-adv-x="1024" d="M0 569v176h1024v-176h-1024z" />
<glyph unicode="&#x2014;" horiz-adv-x="2048" d="M0 569v176h2048v-176h-2048z" />
<glyph unicode="&#x2018;" horiz-adv-x="454" d="M121 905v238l213 143v-381h-213z" />
<glyph unicode="&#x2019;" horiz-adv-x="454" d="M121 905v381h213v-237z" />
<glyph unicode="&#x201a;" horiz-adv-x="454" d="M121 -170v381h213v-238z" />
<glyph unicode="&#x201c;" horiz-adv-x="720" d="M98 905v238l213 143v-381h-213zM410 905v238l213 143v-381h-213z" />
<glyph unicode="&#x201d;" horiz-adv-x="720" d="M98 905v381h213v-237zM410 905v381h213v-237z" />
<glyph unicode="&#x201e;" horiz-adv-x="720" d="M98 -170v381h213v-238zM410 -170v381h213v-238z" />
<glyph unicode="&#x2022;" horiz-adv-x="1024" d="M190 643q0 133 94.5 227.5t227.5 94.5t227.5 -94.5t94.5 -227.5t-94.5 -227t-227.5 -94t-227.5 94t-94.5 227z" />
<glyph unicode="&#x2026;" horiz-adv-x="2048" d="M217 98q0 53 36 89t89 36t89 -35.5t36 -89.5q0 -53 -36 -89t-89 -36q-51 0 -88 37t-37 88zM899 98q0 53 36 89t89 36t89 -35.5t36 -89.5q0 -53 -36 -89t-89 -36q-51 0 -88 37t-37 88zM1581 98q0 53 36 89t89 36t89 -35.5t36 -89.5q0 -53 -36 -89t-89 -36q-51 0 -88 37 t-37 88z" />
<glyph unicode="&#x202f;" horiz-adv-x="344" />
<glyph unicode="&#x2039;" horiz-adv-x="681" d="M98 561l303 457l183 -64l-277 -393l277 -393l-183 -64z" />
<glyph unicode="&#x203a;" horiz-adv-x="681" d="M98 168l277 393l-277 393l183 64l303 -457l-303 -457z" />
<glyph unicode="&#x205f;" horiz-adv-x="431" />
<glyph unicode="&#x2122;" horiz-adv-x="2048" d="M41 1122v164h692v-164h-239v-680h-213v680h-240zM901 442v844h287l203 -532h4l202 532h287v-844h-188v598h-4l-222 -598h-155l-221 598h-4v-598h-189z" />
<glyph unicode="&#x25fc;" horiz-adv-x="993" d="M0 0v993h993v-993h-993z" />
</font>
</defs>
</svg>
